<?xml version="1.0" encoding="utf-8"?>
<!-- Generator: Adobe Illustrator 21.1.0, SVG Export Plug-In . SVG Version: 6.00 Build 0)  -->
<svg version="1.1" id="Layer_1" xmlns="http://www.w3.org/2000/svg" xmlns:xlink="http://www.w3.org/1999/xlink" x="0px" y="0px"
	 viewBox="0 0 1000 640.6" style="enable-background:new 0 0 1000 640.6;" xml:space="preserve">
<style type="text/css">
	.st0{fill:#6F1C56;}
</style>
<g>
	<g>
		<g>
			<path class="st0" d="M30,607.1c0-12,9.2-20.2,21.4-20.2c10.2,0,15.4,6,17.7,11.3L59,603c-1-3-4-5.7-7.5-5.7
				c-5.7,0-9.5,4.3-9.5,9.8s3.8,9.8,9.5,9.8c3.5,0,6.5-2.6,7.5-5.7l10.2,4.7c-2.3,5.2-7.5,11.4-17.7,11.4
				C39.2,627.2,30,619.1,30,607.1z"/>
			<path class="st0" d="M94.2,626.5l-5.4-12.3h-4.3v12.3H72.8v-39h20.8c9.1,0,14,6.1,14,13.4c0,6.7-3.9,10.3-7,11.8l7.1,13.8H94.2z
				 M95.7,600.9c0-2.1-1.9-3-3.9-3h-7.2v6.1h7.2C93.8,604,95.7,603,95.7,600.9z"/>
			<path class="st0" d="M121.6,626.5v-15.5L107,587.6h13.3l7.2,13.1l7.1-13.1h13.3l-14.5,23.5v15.5H121.6z"/>
			<path class="st0" d="M145.9,621l6.1-8.8c2.9,2.8,7.3,5,12.6,5c2.2,0,4.3-0.6,4.3-2.1c0-3.7-21.7,0.1-21.7-15.3
				c0-6.6,5.5-12.9,16.2-12.9c6.4,0,12.1,1.8,16.5,5.4l-6.3,8.4c-3.4-2.6-7.8-3.9-11.4-3.9c-2.3,0-3,0.8-3,1.8
				c0,3.7,21.7,0.5,21.7,15c0,8.6-6.4,13.6-16.8,13.6C155.7,627.2,150,624.8,145.9,621z"/>
			<path class="st0" d="M191.9,626.5v-28.7h-10.5v-10.3h32.7v10.3h-10.4v28.7H191.9z"/>
			<path class="st0" d="M240.8,626.5l-1.4-4.6h-14l-1.4,4.6h-13.4l14.4-39h14.8l14.4,39H240.8z M232.3,599.1l-3.9,12.6h7.7
				L232.3,599.1z"/>
			<path class="st0" d="M256.2,626.5v-39H268v28.7h14.8v10.3H256.2z"/>
			<path class="st0" d="M299.5,621l6.1-8.8c2.9,2.8,7.3,5,12.6,5c2.2,0,4.3-0.6,4.3-2.1c0-3.7-21.7,0.1-21.7-15.3
				c0-6.6,5.5-12.9,16.2-12.9c6.4,0,12.1,1.8,16.5,5.4l-6.3,8.4c-3.4-2.6-7.8-3.9-11.4-3.9c-2.3,0-3,0.8-3,1.8
				c0,3.7,21.7,0.5,21.7,15c0,8.6-6.4,13.6-16.8,13.6C309.3,627.2,303.6,624.8,299.5,621z"/>
			<path class="st0" d="M348.1,626.5v-15.5l-14.6-23.5h13.3l7.2,13.1l7.1-13.1h13.3l-14.5,23.5v15.5H348.1z"/>
			<path class="st0" d="M372.3,621l6.1-8.8c2.9,2.8,7.3,5,12.6,5c2.2,0,4.3-0.6,4.3-2.1c0-3.7-21.7,0.1-21.7-15.3
				c0-6.6,5.5-12.9,16.2-12.9c6.4,0,12.1,1.8,16.5,5.4l-6.3,8.4c-3.4-2.6-7.8-3.9-11.5-3.9c-2.3,0-3,0.8-3,1.8
				c0,3.7,21.7,0.5,21.7,15c0,8.6-6.4,13.6-16.8,13.6C382.1,627.2,376.5,624.8,372.3,621z"/>
			<path class="st0" d="M418.3,626.5v-28.7h-10.5v-10.3h32.7v10.3h-10.4v28.7H418.3z"/>
			<path class="st0" d="M444.7,626.5v-39h29.6v10.3h-17.8v3.9h17.4V612h-17.4v4.3h17.8v10.3H444.7z"/>
			<path class="st0" d="M514,626.5v-23.4l-8.7,23.4H500l-8.7-23.4v23.4h-11.8v-39h16.3l6.8,18.7l6.8-18.7h16.3v39H514z"/>
			<path class="st0" d="M529.1,621l6.1-8.8c2.9,2.8,7.3,5,12.6,5c2.2,0,4.3-0.6,4.3-2.1c0-3.7-21.7,0.1-21.7-15.3
				c0-6.6,5.5-12.9,16.2-12.9c6.4,0,12.1,1.8,16.5,5.4l-6.3,8.4c-3.4-2.6-7.8-3.9-11.4-3.9c-2.3,0-3,0.8-3,1.8
				c0,3.7,21.7,0.5,21.7,15c0,8.6-6.4,13.6-16.8,13.6C538.9,627.2,533.2,624.8,529.1,621z"/>
			<path class="st0" d="M579.8,621l6.1-8.8c2.9,2.8,7.3,5,12.6,5c2.2,0,4.3-0.6,4.3-2.1c0-3.7-21.7,0.1-21.7-15.3
				c0-6.6,5.5-12.9,16.2-12.9c6.4,0,12.1,1.8,16.5,5.4l-6.3,8.4c-3.4-2.6-7.8-3.9-11.4-3.9c-2.3,0-3,0.8-3,1.8
				c0,3.7,21.7,0.5,21.7,15c0,8.6-6.4,13.6-16.8,13.6C589.6,627.2,584,624.8,579.8,621z"/>
			<path class="st0" d="M616.5,607.1c0-12,9.3-20.2,21.3-20.2c12,0,21.3,8.2,21.3,20.2s-9.3,20.2-21.3,20.2
				C625.8,627.2,616.5,619.1,616.5,607.1z M647.2,607.1c0-5.4-3.7-9.8-9.3-9.8s-9.3,4.3-9.3,9.8s3.7,9.8,9.3,9.8
				S647.2,612.5,647.2,607.1z"/>
			<path class="st0" d="M663.3,626.5v-39h11.8v28.7h14.8v10.3H663.3z"/>
			<path class="st0" d="M693.5,610.5v-23h12v22.6c0,3.7,2.5,6.7,7.3,6.7c4.8,0,7.2-3,7.2-6.7v-22.6h12v22.9
				c0,9.7-6.1,16.8-19.2,16.8C699.6,627.2,693.5,620.2,693.5,610.5z"/>
			<path class="st0" d="M746.6,626.5v-28.7h-10.5v-10.3h32.7v10.3h-10.4v28.7H746.6z"/>
			<path class="st0" d="M773,626.5v-39h11.8v39H773z"/>
			<path class="st0" d="M789.1,607.1c0-12,9.3-20.2,21.3-20.2c12,0,21.3,8.2,21.3,20.2s-9.3,20.2-21.3,20.2
				C798.3,627.2,789.1,619.1,789.1,607.1z M819.7,607.1c0-5.4-3.7-9.8-9.3-9.8s-9.3,4.3-9.3,9.8s3.7,9.8,9.3,9.8
				S819.7,612.5,819.7,607.1z"/>
			<path class="st0" d="M862.1,626.5l-14.4-19.7v19.7h-11.8v-39h12.2l13.6,18.5v-18.5h11.8v39H862.1z"/>
			<path class="st0" d="M876.7,621l6.1-8.8c2.9,2.8,7.3,5,12.6,5c2.2,0,4.3-0.6,4.3-2.1c0-3.7-21.7,0.1-21.7-15.3
				c0-6.6,5.5-12.9,16.2-12.9c6.4,0,12.1,1.8,16.5,5.4l-6.3,8.4c-3.4-2.6-7.8-3.9-11.4-3.9c-2.3,0-3,0.8-3,1.8
				c0,3.7,21.7,0.5,21.7,15c0,8.6-6.4,13.6-16.8,13.6C886.6,627.2,880.9,624.8,876.7,621z"/>
		</g>
	</g>
	<g>
		<path class="st0" d="M742.3,156.2c0,25.3,19.2,36.3,84.3,63c65.8,26.7,115.2,59.7,115.2,129.5c0,100.8-89.8,159.7-190.5,159.7
			c-56.5,0-105.2-11.3-144.8-33.5c30.2-19.4,52.9-47.2,63.4-81.9c4.1-13.7,6.3-28.5,6.3-44.3c0-69.9-49.3-102.8-115.1-129.5
			c-65.1-26.7-84.3-37.7-84.3-63c0-24,25.3-48.7,69.9-48.7c34.7,0,61.4,9.9,87.8,28.9c8.7-35.1,30-63.7,59.2-84.2
			c34-24,78.8-37.2,126.8-37.2c6.4,0,12.6,0.2,18.6,0.6c72.3,3.9,123.7,30.9,161,70.7l-72.7,72.7c-36.3-33.6-68.5-51.5-115.1-51.5
			C767.7,107.4,742.3,132.2,742.3,156.2z"/>
		<path class="st0" d="M426.9,53.1C426.9,53.1,426.8,53.1,426.9,53.1c-7.2,5.1-13.9,10.8-19.9,16.8c-31.6-21.7-71.3-34.2-119.4-34.2
			c-147.3,0-265.8,122.3-265.8,261.4c0,116.8,86.7,190.3,205.9,190.3c38.5,0,70.8-7.9,99-21.2h0.1c7.1,4.8,14.7,9.1,22.5,13
			c0,0.1,0.1,0.1,0.1,0.1c-1.4,0.8-2.9,1.5-4.3,2.2c-0.9,0.6-1.7,1-2.6,1.4c-0.5,0.3-1,0.6-1.6,0.8v0.1c-2.2,1.1-4.5,2.2-6.9,3.2
			c-1.3,0.7-2.7,1.3-4.1,1.8c-0.1,0.1-0.3,0.1-0.4,0.2c-2.3,1-4.6,1.9-6.9,2.9c-2.2,0.9-4.4,1.7-6.7,2.6c-0.9,0.3-1.6,0.6-2.5,0.9
			c-1.7,0.7-3.4,1.2-5.1,1.8c-0.6,0.2-1.2,0.4-1.9,0.6c-1.7,0.7-3.4,1.1-5.1,1.6c-0.2,0.1-0.4,0.2-0.7,0.2c-1.3,0.3-2.7,0.7-4.1,1
			c-1,0.4-2.2,0.7-3.3,1c-2.6,0.8-5.1,1.3-7.8,1.9c-1.1,0.2-2.3,0.5-3.4,0.7c-0.1,0-0.1,0-0.1,0c-1.3,0.3-2.7,0.6-4,0.9
			c-3,0.6-6,1-9,1.5c-2.1,0.4-4.3,0.7-6.5,1c-0.6,0.1-1.3,0.2-2,0.2c-1.7,0.2-3.5,0.4-5.2,0.6c-0.6,0.1-1.1,0.1-1.7,0.2
			c-3,0.4-6.1,0.6-9.2,0.7c-1.2,0.1-2.5,0.2-3.8,0.2c-1.1,0.1-2.3,0.1-3.4,0.2c0,0,0,0-0.1,0c-1.2,0.2-2.3,0.2-3.5,0.1
			c-1.3,0-2.7,0.1-4,0.1h-3.1c-7.9,0-15.7-0.3-23.3-0.9c-3.7-0.3-7.4-0.7-11-1c-0.5-0.1-1-0.1-1.4-0.2c-3.2-0.3-6.3-0.8-9.4-1.2
			c-0.7-0.1-1.4-0.2-2.1-0.4c-2.9-0.5-5.6-1-8.5-1.5c-0.8-0.1-1.5-0.3-2.2-0.5c-1.6-0.3-3-0.6-4.5-1c-1.4-0.3-2.9-0.6-4.2-1
			c-2.3-0.6-4.6-1.1-6.8-1.7c-1.6-0.5-3.2-0.9-4.9-1.3c-1.5-0.5-3-1-4.5-1.4c-1.1-0.3-2.3-0.7-3.4-1c-1-0.3-2-0.7-3-1
			c-1.1-0.3-2.2-0.7-3.2-1.1c-2.4-0.8-4.7-1.7-6.9-2.7c-0.3-0.1-0.5-0.1-0.8-0.3c-0.6-0.2-1-0.4-1.5-0.6c-2.2-0.9-4.3-1.7-6.4-2.8
			c-2-0.8-3.9-1.7-5.8-2.7c-0.4-0.1-0.8-0.3-1-0.6c-2.3-1-4.6-2.2-6.9-3.4c-0.5-0.2-0.9-0.4-1.3-0.7c-1-0.6-2.1-1.1-3-1.7
			c-1.6-0.9-3.1-1.7-4.7-2.7c-0.3-0.1-0.5-0.3-0.8-0.5c-2.6-1.5-5.1-3.1-7.6-4.8c-0.6-0.4-1.2-0.8-1.8-1.2c-2.3-1.5-4.5-3.1-6.7-4.8
			c-1.8-1.3-3.6-2.8-5.3-4.2c-0.8-0.5-1.5-1.1-2.2-1.7c-1.1-1-2.3-1.9-3.4-3c-1.5-1.2-3.1-2.6-4.7-4c-2.1-1.8-4.1-3.8-6.1-5.8
			c-1.5-1.5-3-3.1-4.6-4.8c-0.8-0.7-1.3-1.3-2-2.1c-0.2-0.2-0.3-0.4-0.5-0.6c-0.1,0-0.1,0-0.2-0.1c0,0,0,0,0-0.1
			c-1.9-2.1-3.7-4.3-5.5-6.5c-0.1,0-0.1-0.1-0.1-0.1c-2-2.4-3.9-4.9-5.7-7.4c-1.9-2.6-3.7-5.1-5.4-7.8c-1.1-1.7-2.3-3.4-3.3-5.2
			c-0.4-0.5-0.7-1-1-1.5c-0.5-0.8-1-1.5-1.4-2.4c-0.2-0.4-0.5-0.8-0.7-1.2c-0.2-0.2-0.3-0.5-0.5-0.7V406c-0.4-0.6-0.7-1.2-1-1.9
			c-0.7-1.1-1.2-2.3-1.9-3.5c-0.1-0.1-0.1-0.3-0.2-0.4c-0.1-0.2-0.2-0.4-0.3-0.7c-0.1-0.2-0.3-0.4-0.3-0.6c-0.1-0.2-0.3-0.5-0.4-0.7
			c-0.5-1-1-1.8-1.3-2.8c-0.2-0.4-0.4-0.8-0.6-1.2c-0.3-0.5-0.5-0.9-0.7-1.2c-0.4-0.9-0.8-1.7-1.1-2.6c-0.2-0.4-0.4-0.9-0.5-1.2
			c-0.2-0.3-0.3-0.5-0.5-0.8v-0.1c-0.1-0.3-0.3-0.6-0.4-0.9c0,0,0,0,0-0.1c-0.9-2-1.7-4-2.5-6.1c-0.8-1.8-1.4-3.6-2-5.4
			c-0.7-1.8-1.3-3.6-1.9-5.4c-0.7-1.9-1.2-3.9-1.7-5.8c-0.3-0.8-0.6-1.6-0.7-2.4c-0.8-2.4-1.3-4.8-1.9-7.1c-0.8-2.9-1.3-5.8-1.9-8.8
			c-0.7-2.9-1.1-5.8-1.5-8.8c-0.8-4.5-1.3-8.9-1.7-13.4c-0.3-2.6-0.5-5-0.6-7.6c-0.1-0.1-0.1-0.2,0-0.4c-0.2-1.2-0.2-2.4-0.3-3.6
			c-0.2-3.9-0.3-7.9-0.3-11.9v-0.1c0-3.8,0.1-7.6,0.3-11.3c0.1-3.5,0.3-7,0.7-10.6c0.1-1.7,0.3-3.4,0.5-5.1c0.1-1.1,0.2-2.3,0.4-3.5
			c0.2-2.6,0.6-5.1,1-7.7c0-0.2,0-0.3,0.1-0.5c0.4-2.8,0.8-5.5,1.3-8.3c0.5-3,1-6,1.7-9c0.1-0.6,0.3-1.2,0.4-1.9
			c0.2-0.8,0.4-1.6,0.6-2.5c0.7-3,1.4-6.2,2.3-9.2c0.2-0.6,0.3-1.2,0.5-1.8c1-3.5,2-7,3.1-10.6c0.6-1.8,1.1-3.6,1.8-5.4
			c0.2-0.8,0.5-1.5,0.8-2.3c0.6-1.5,1-3,1.6-4.6c0.2-0.7,0.5-1.3,0.7-1.9c0.9-2.2,1.7-4.4,2.6-6.5c0-0.1,0-0.1,0-0.1
			c0.2-0.5,0.4-1,0.6-1.3c0.1-0.4,0.2-0.7,0.4-1c1.1-2.8,2.3-5.5,3.5-8.3c0.4-0.9,0.9-1.7,1.2-2.7c1.5-3.2,3-6.4,4.7-9.5
			c1.3-2.7,2.8-5.3,4.2-7.9c1.2-2.3,2.5-4.6,3.8-6.8v-0.1c0.3-0.5,0.6-1,1-1.5c0.8-1.4,1.6-2.9,2.6-4.3c2-3.3,4.2-6.7,6.4-9.9
			c0.5-0.7,0.9-1.2,1.2-1.8c1.3-1.9,2.7-3.8,4-5.7c0.3-0.4,0.5-0.8,0.9-1.1c0.2-0.4,0.4-0.7,0.7-1c0.9-1.2,1.8-2.4,2.7-3.5
			c1.4-2,3-4,4.5-5.9c1.3-1.7,2.7-3.4,4.1-5c1.1-1.3,2.2-2.7,3.4-4c0.3-0.5,0.7-0.9,1.1-1.3c1-1.2,2-2.4,3.1-3.5
			c0.5-0.6,1-1.1,1.5-1.8c1.3-1.4,2.6-2.8,3.9-4.1c1.8-2,3.7-4,5.7-5.9c0.1-0.1,0.2-0.2,0.3-0.3c0.1-0.2,0.3-0.4,0.4-0.4
			c1.4-1.4,2.9-2.9,4.4-4.2V95c0.4-0.5,0.9-0.9,1.3-1.2c1.2-1.2,2.5-2.4,3.8-3.5c1-1,2-1.9,3-2.8c0.7-0.6,1.4-1.2,2.2-1.8v-0.1
			c0.9-0.8,1.7-1.5,2.7-2.3c0.9-0.8,1.7-1.5,2.7-2.2c1.8-1.5,3.6-3,5.4-4.5c1.2-1,2.4-1.8,3.6-2.8c0.4-0.3,0.9-0.7,1.2-1
			c0.3-0.2,0.5-0.4,0.8-0.5v-0.1c1.6-1.2,3.2-2.5,4.9-3.6c0.1-0.1,0.3-0.2,0.4-0.3c2.2-1.5,4.4-3,6.6-4.5c1-0.6,1.8-1.2,2.7-1.8
			c0.1-0.1,0.1-0.2,0.2-0.2c0.9-0.6,1.7-1.1,2.6-1.6c1.9-1.2,3.9-2.5,5.9-3.7v-0.1c0.6-0.4,1-0.7,1.6-1c1.4-1,3-1.8,4.5-2.6v-0.1
			c2.1-1.2,4.3-2.5,6.5-3.7c1.5-0.8,3-1.6,4.7-2.4c1.1-0.7,2.4-1.3,3.5-1.8c0.6-0.4,1.2-0.7,1.8-1c0.8-0.3,1.5-0.7,2.3-1v-0.1
			c1.8-0.9,3.6-1.8,5.4-2.5c0.3-0.3,0.7-0.4,1-0.5c0.8-0.4,1.4-0.8,2.2-1c0.8-0.3,1.4-0.7,2.2-1c0.5-0.2,0.9-0.4,1.2-0.6
			c0.3-0.1,0.7-0.2,1-0.3V37c2.2-1,4.4-1.9,6.6-2.7c0.6-0.3,1-0.5,1.5-0.7c1.7-0.7,3.4-1.3,5.1-1.9c1.5-0.7,3-1.2,4.7-1.7
			c0.2-0.1,0.3-0.2,0.4-0.2c0.6-0.2,1.1-0.4,1.7-0.5v-0.1c1.1-0.4,2.3-0.9,3.4-1.1c0.6-0.2,1.1-0.4,1.7-0.6c0.6-0.2,1.1-0.4,1.7-0.5
			V27c1.1-0.4,2.2-0.8,3.3-1c1.1-0.4,2.3-0.7,3.5-1c2.3-0.8,4.6-1.3,6.9-1.9c0.4-0.1,0.7-0.3,1-0.3c0.4-0.1,0.8-0.2,1-0.3
			c1.7-0.5,3.4-0.9,5.2-1.2c0.8-0.2,1.6-0.4,2.4-0.6c1.5-0.3,3.1-0.7,4.7-1v-0.1c1.8-0.4,3.5-0.8,5.3-1c0.3,0,0.6-0.1,1-0.2
			c0.3,0,0.6-0.1,1-0.1v-0.1c2-0.3,3.9-0.7,5.9-1h0.3c5.1-0.9,10.4-1.6,15.6-2.1c0.8-0.1,1.5-0.2,2.3-0.3c1.7-0.2,3.4-0.3,5.1-0.4
			v-0.1c1.8-0.1,3.6-0.3,5.4-0.4h2.1V14c1.9-0.1,3.8-0.2,5.8-0.2h1.4c0.1,0,0.2-0.1,0.3,0c2.5-0.1,4.9-0.2,7.5-0.2h0.3
			c2.8,0,5.5,0.1,8.2,0.2h1.9c1.2,0.1,2.4,0.1,3.4,0.2c1.1,0,2.3,0.1,3.4,0.2h0.7c2.5,0.1,4.9,0.3,7.1,0.5c2.8,0.2,5.4,0.5,8,0.8
			c2.7,0.3,5.2,0.7,7.8,1h0.1c1.7,0.2,3.4,0.5,5.1,0.8c0.7,0.1,1.2,0.3,1.8,0.4c0.4,0.1,0.9,0.2,1.2,0.3c2.3,0.4,4.6,0.9,6.9,1.2
			c2.5,0.5,4.9,1,7.3,1.6h0.1c2.1,0.5,4.2,1,6.3,1.6c2.7,0.7,5.2,1.4,7.8,2.3h0.1c3.6,1.1,7.2,2.4,10.8,3.7c3.1,1.1,6.2,2.4,9.1,3.6
			c0,0,0,0,0.1,0c2.1,1,4.2,1.9,6.3,2.9c1.4,0.6,2.8,1.2,4.1,1.9c0.4,0.2,0.8,0.4,1,0.6c0.4,0.1,0.8,0.3,1,0.6
			c1.4,0.7,2.9,1.4,4.3,2.2c0.6,0.3,1.1,0.7,1.7,1c1.8,1,3.6,2,5.3,3c0.2,0.1,0.4,0.2,0.6,0.4c1.9,1.1,3.8,2.3,5.7,3.5
			c0.2,0.1,0.5,0.2,0.7,0.4C422.5,49.9,424.7,51.4,426.9,53.1z"/>
		<path class="st0" d="M563.7,365.8c0,6.8-1.5,12.9-4.5,18.6c-9.9,19.5-35.9,31.5-68.8,31.5c-12.8,0-24.9-1.2-36.5-3.6
			c-37.7-7.7-69-28-97.8-59.5l-15.7,11.5l-0.1,0.1l-1.1,0.9c-35.6,28.7-65.8,47.2-112.4,47.2c-68.5,0-117.2-46.5-117.2-115.7
			C109.6,194.6,191.2,111,279,111c38.8,0,66.2,11.9,88.5,31.9c-2.1,9.7-3.1,19.8-3.1,30.5c0,70.5,55.5,104.1,117.8,129.5
			C546.6,328.8,563.7,342.5,563.7,365.8z"/>
		<g>
			<g>
				<path class="st0" d="M420.2,48.4c-0.2-0.2-0.5-0.3-0.7-0.4c-1.9-1.2-3.8-2.4-5.7-3.5c-0.2-0.2-0.4-0.3-0.6-0.4
					c-2.4-1.5-4.7-2.9-7-4.1c-1.4-0.8-2.9-1.5-4.3-2.2c-0.3-0.3-0.7-0.5-1-0.6c-0.3-0.2-0.7-0.4-1-0.6c-1.3-0.7-2.7-1.3-4.1-1.9
					c-2.1-1-4.2-1.9-6.3-2.9c-0.1,0-0.1,0-0.1,0c-3-1.2-6-2.5-9.1-3.6c-3.5-1.3-7.1-2.6-10.8-3.7h-0.1c-2.6-0.9-5.1-1.6-7.8-2.3
					c-2.1-0.6-4.2-1.1-6.3-1.6h-0.1c-2.4-0.6-4.9-1.1-7.3-1.6c-2.3-0.4-4.6-0.9-6.9-1.2c-0.4-0.1-0.9-0.2-1.2-0.3
					c-0.6-0.1-1.1-0.3-1.8-0.4c-1.7-0.3-3.4-0.6-5.1-0.8h-0.1c-2.6-0.4-5.1-0.8-7.8-1c-2.6-0.3-5.2-0.6-8-0.8
					c-2.3-0.2-4.7-0.4-7.1-0.5h-0.7c-1.1-0.1-2.3-0.2-3.4-0.2c-1-0.1-2.2-0.1-3.4-0.2h-1.9c-2.7-0.1-5.4-0.2-8.2-0.2h-0.3
					c-2.6,0-5,0.1-7.5,0.2c-0.1-0.1-0.2,0-0.3,0h-1.4c-2,0-3.9,0.1-5.8,0.2c-0.8,0-1.4,0.1-2.1,0.1c-1.8,0.1-3.6,0.3-5.4,0.4
					c-1.7,0.2-3.4,0.3-5.1,0.5c-0.8,0.1-1.5,0.2-2.3,0.3c-5.2,0.5-10.5,1.2-15.6,2.1H246c-2,0.3-3.9,0.7-5.9,1c-0.4,0-0.7,0.1-1,0.2
					c-0.4,0.1-0.7,0.2-1,0.2c-1.8,0.3-3.5,0.7-5.3,1c-1.5,0.3-3.1,0.7-4.7,1c-0.8,0.2-1.6,0.4-2.4,0.6c-1.8,0.4-3.5,0.8-5.2,1.2
					c-0.3,0.1-0.7,0.2-1,0.3c-0.3,0-0.6,0.2-1,0.3c-2.3,0.6-4.6,1.1-6.9,1.9c-1.2,0.3-2.4,0.6-3.5,1c-1.1,0.3-2.2,0.7-3.3,1
					c-0.6,0.2-1.1,0.4-1.7,0.6c-0.6,0.2-1.1,0.4-1.7,0.6c-1.1,0.3-2.3,0.8-3.4,1.1c-0.6,0.2-1.1,0.4-1.7,0.6c-0.1,0-0.2,0.1-0.4,0.2
					c-1.6,0.5-3.1,1-4.7,1.7c-1.7,0.6-3.4,1.2-5.1,1.9c-0.5,0.2-1,0.4-1.5,0.7c-2.2,0.8-4.4,1.6-6.6,2.7c-0.3,0.1-0.7,0.3-1,0.4
					c-0.4,0.2-0.8,0.4-1.2,0.6c-0.8,0.3-1.4,0.7-2.2,1c-0.8,0.3-1.4,0.7-2.2,1c-0.3,0.1-0.7,0.2-1,0.5c-1.8,0.7-3.6,1.6-5.4,2.5
					c-0.8,0.4-1.5,0.8-2.3,1.1c-0.6,0.3-1.2,0.6-1.8,1c-1.1,0.5-2.4,1.1-3.5,1.8c-1.6,0.8-3.1,1.6-4.7,2.4c-2.2,1.2-4.4,2.5-6.5,3.7
					c-1.5,0.9-3,1.7-4.5,2.7c-0.6,0.3-1,0.6-1.6,1c-2,1.2-4,2.5-5.9,3.8c-0.9,0.5-1.7,1-2.6,1.6c-0.1,0-0.1,0.1-0.2,0.2
					c-0.9,0.6-1.7,1.2-2.7,1.8c-2.2,1.4-4.4,3-6.6,4.5c-0.1,0.1-0.3,0.2-0.4,0.3c-1.7,1.1-3.3,2.4-4.9,3.6c-0.3,0.2-0.5,0.4-0.8,0.6
					c-0.4,0.3-0.9,0.7-1.2,1c-1.2,1-2.4,1.8-3.6,2.8c-1.8,1.4-3.6,3-5.4,4.5c-1,0.7-1.8,1.4-2.7,2.2c-1,0.8-1.8,1.5-2.7,2.3
					c-0.8,0.6-1.5,1.2-2.2,1.9c-1,0.9-2.1,1.8-3,2.8c-1.3,1.1-2.6,2.3-3.8,3.5c-0.5,0.4-1,0.8-1.3,1.2c-1.5,1.3-3,2.8-4.4,4.3
					c-0.1,0-0.3,0.2-0.4,0.4c-0.1,0.1-0.2,0.2-0.3,0.3c-2,1.9-3.9,3.9-5.7,5.9c-1.3,1.3-2.6,2.7-3.9,4.1c-0.6,0.7-1,1.2-1.5,1.8
					c-1.1,1.1-2.2,2.3-3.1,3.5c-0.5,0.5-0.9,0.9-1.1,1.3c-1.2,1.3-2.3,2.7-3.4,4c-1.4,1.6-2.8,3.3-4.1,5c-1.5,1.9-3,3.9-4.5,5.9
					c-0.9,1.1-1.8,2.3-2.7,3.5c-0.3,0.3-0.5,0.6-0.7,1c-0.4,0.4-0.6,0.8-0.9,1.1c-1.3,1.9-2.7,3.8-4,5.7c-0.4,0.6-0.8,1.1-1.2,1.8
					c-2.2,3.2-4.4,6.6-6.4,9.9c-1,1.4-1.8,2.9-2.6,4.3c-0.4,0.5-0.7,1-1,1.5v0.1c-1.3,2.2-2.6,4.5-3.8,6.8c-1.4,2.6-2.9,5.2-4.2,7.9
					c-1.6,3.1-3.1,6.3-4.7,9.5c-0.4,1-0.9,1.8-1.2,2.7c-1.2,2.8-2.4,5.5-3.5,8.3c-0.2,0.3-0.3,0.6-0.4,1c-0.2,0.4-0.4,0.9-0.6,1.3
					c0,0,0,0,0,0.1c-0.9,2.1-1.7,4.3-2.6,6.5c-0.2,0.6-0.5,1.2-0.7,1.9c-0.6,1.5-1,3-1.6,4.6c-0.3,0.8-0.6,1.5-0.8,2.3
					c-0.7,1.8-1.2,3.6-1.8,5.4c-1.1,3.5-2.2,7-3.1,10.6c-0.2,0.6-0.3,1.2-0.5,1.8c-0.9,3-1.6,6.2-2.3,9.2c-0.2,0.9-0.4,1.7-0.6,2.5
					c-0.1,0.7-0.3,1.3-0.4,1.9c-0.7,3-1.2,6-1.7,9c-0.6,2.8-1,5.5-1.3,8.3c-0.1,0.2-0.1,0.3-0.1,0.5c-0.4,2.6-0.8,5.1-1,7.7
					c-0.2,1.2-0.3,2.4-0.4,3.5C1.2,275.3,1,277,1,278.7c-0.4,3.5-0.6,7-0.7,10.6C0.1,293,0,296.8,0,300.6v0.1c0,4,0.1,8,0.3,11.9
					c0.1,1.2,0.1,2.4,0.3,3.6c-0.1,0.2-0.1,0.3,0,0.4c0.1,2.6,0.3,5,0.6,7.6c0.4,4.5,1,8.9,1.7,13.4c0.4,3,0.9,5.9,1.5,8.8
					c0.6,3,1.1,5.9,1.9,8.8c0.6,2.4,1.1,4.8,1.9,7.1c0.1,0.8,0.4,1.6,0.7,2.4c0.5,1.9,1,3.9,1.7,5.8c0.6,1.8,1.2,3.6,1.9,5.4
					c0.6,1.8,1.2,3.6,2,5.4c0.8,2.1,1.6,4.1,2.5,6.1c0,0.1,0,0.1,0,0.1c0.1,0.3,0.3,0.6,0.4,0.9v0.1c0.2,0.3,0.3,0.5,0.5,0.8
					c0.1,0.4,0.3,0.9,0.5,1.2c0.6,1.2,1.1,2.6,1.8,3.8c0.2,0.5,0.4,0.9,0.6,1.2c0.2,0.5,0.4,1,0.6,1.3v0.1c0.3,0.5,0.5,0.9,0.8,1.3
					c0.1,0.2,0.3,0.5,0.4,0.7c0,0.2,0.2,0.4,0.3,0.6c0.1,0.3,0.2,0.5,0.3,0.7c0.1,0.1,0.1,0.3,0.2,0.4c0.7,1.2,1.2,2.4,1.9,3.5
					c0.4,0.7,0.7,1.3,1,1.9v0.1c0.2,0.2,0.3,0.5,0.5,0.7c0.2,0.5,0.5,0.9,0.7,1.2c0.5,0.9,1,1.6,1.4,2.4c0.3,0.5,0.6,1,1,1.5
					c1,1.8,2.2,3.5,3.3,5.2c1.7,2.7,3.5,5.2,5.4,7.8c1.8,2.6,3.7,5,5.7,7.4c0,0,0,0.1,0.1,0.1c1.8,2.2,3.6,4.4,5.5,6.5
					c0,0.1,0,0.1,0,0.1c0.1,0.1,0.1,0.1,0.2,0.1c0.2,0.2,0.3,0.4,0.5,0.6c0.7,0.8,1.2,1.4,2,2.1c1.3,1.5,2.8,3,4.3,4.6
					c0.1,0.1,0.2,0.2,0.3,0.2c2,2,4,4,6.1,5.8c1.5,1.4,3.1,2.8,4.7,4c1.1,1,2.3,2,3.4,3c0.7,0.6,1.4,1.2,2.2,1.7
					c1.7,1.4,3.5,2.9,5.3,4.2c2.2,1.6,4.4,3.2,6.7,4.8c0.6,0.5,1.2,0.9,1.8,1.2c2.5,1.6,5,3.2,7.6,4.8c0.3,0.2,0.5,0.4,0.8,0.5
					c1.5,1,3,1.8,4.7,2.7c1,0.6,2,1.1,3,1.7c0.5,0.3,0.9,0.5,1.3,0.7c2.3,1.2,4.6,2.4,6.9,3.4c0.3,0.3,0.7,0.5,1,0.6
					c1.9,1,3.8,1.9,5.8,2.7c2.1,1,4.2,1.9,6.4,2.8c0.5,0.2,1,0.4,1.5,0.6c0.3,0.2,0.5,0.2,0.8,0.3c2.3,1,4.6,1.9,6.9,2.7
					c1,0.5,2.1,0.9,3.2,1.1c2.1,0.8,4.2,1.4,6.4,2.1c1.4,0.5,3,1,4.5,1.4c1.6,0.5,3.2,0.9,4.9,1.3c2.2,0.6,4.5,1.1,6.8,1.7
					c1.3,0.4,2.8,0.7,4.2,1c1.4,0.4,2.9,0.7,4.5,1c3.5,0.8,7,1.4,10.7,2c3.8,0.6,7.6,1.1,11.5,1.6c0.5,0.1,1,0.1,1.4,0.2
					c3.6,0.4,7.3,0.8,11,1c7.6,0.6,15.4,0.9,23.3,0.9h3.1c1.3,0,2.7-0.1,4-0.1c1.1-0.1,2.4-0.1,3.5-0.1c0.1,0,0.1,0,0.1,0
					c1.1-0.1,2.3-0.1,3.4-0.2c1.3,0,2.6-0.1,3.8-0.2c3.7-0.2,7.3-0.5,10.9-0.9c4.7-0.5,9.2-1,13.7-1.7c3-0.5,6.1-1,9-1.5
					c1.3-0.3,2.7-0.6,4-0.9c0,0,0,0,0.1,0c3.8-0.8,7.5-1.6,11.2-2.6c1.1-0.3,2.3-0.6,3.3-1c3.3-0.9,6.7-1.8,9.9-2.9
					c0.7-0.2,1.3-0.4,1.9-0.6c1.7-0.6,3.4-1.1,5.1-1.8c0.9-0.3,1.6-0.6,2.5-0.9c2.3-0.9,4.5-1.7,6.7-2.6c2.3-1,4.6-1.9,6.9-2.9
					c0.1-0.1,0.3-0.1,0.4-0.2c3.7-1.6,7.3-3.3,10.9-5.1c1.4-0.8,2.9-1.4,4.2-2.2c1.4-0.7,2.8-1.4,4.2-2.3c-7.8-3.9-15.3-8.3-22.5-13
					h-0.1c-28.2,13.3-60.5,21.2-99,21.2c-119.2,0-205.9-73.6-205.9-190.3c0-139.1,118.5-261.4,265.8-261.4
					c48.2,0,87.8,12.5,119.4,34.2c6-6.1,12.7-11.7,19.8-16.8c0-0.1,0.1-0.1,0.1-0.1C424.7,51.4,422.5,49.9,420.2,48.4z"/>
			</g>
		</g>
	</g>
</g>
</svg>
