<?xml version="1.0" standalone="no"?>
<!DOCTYPE svg PUBLIC "-//W3C//DTD SVG 20010904//EN"
 "http://www.w3.org/TR/2001/REC-SVG-20010904/DTD/svg10.dtd">
<svg version="1.0" xmlns="http://www.w3.org/2000/svg"
 width="1000.000000pt" height="1000.000000pt" viewBox="0 0 1000.000000 1000.000000"
 preserveAspectRatio="xMidYMid meet">
<metadata>
Created by potrace 1.11, written by Peter Selinger 2001-2013
</metadata>
<g transform="translate(0.000000,1000.000000) scale(0.100000,-0.100000)"
fill="#000000" stroke="none">
<path d="M2767 8064 c-1 -1 -40 -5 -87 -9 -106 -9 -126 -12 -256 -35 -32 -5
-71 -12 -85 -14 -14 -3 -61 -14 -105 -26 -43 -11 -86 -22 -95 -24 -188 -45
-538 -201 -741 -331 -57 -36 -112 -71 -123 -78 -10 -7 -25 -18 -33 -24 -7 -7
-17 -13 -20 -13 -4 0 -19 -10 -32 -22 -14 -13 -46 -39 -70 -58 -67 -52 -76
-60 -148 -125 -157 -143 -301 -303 -407 -450 -11 -16 -25 -33 -30 -39 -12 -13
-130 -196 -158 -246 -179 -318 -295 -656 -348 -1015 -14 -98 -21 -519 -9 -595
5 -30 11 -77 14 -105 6 -49 35 -190 55 -271 21 -85 75 -223 128 -334 122 -249
304 -478 517 -648 39 -31 73 -60 76 -63 3 -3 10 -8 15 -10 6 -2 42 -25 80 -50
58 -38 230 -138 238 -138 1 0 29 -12 62 -27 180 -80 456 -157 640 -179 28 -4
61 -8 75 -11 96 -17 424 -23 575 -11 39 3 70 6 70 7 0 1 21 3 47 5 46 3 89 10
138 20 53 11 96 19 115 21 11 1 20 3 20 4 0 1 7 3 15 5 178 45 343 106 544
204 l58 29 -48 27 c-27 16 -78 46 -113 67 l-63 40 -127 -50 c-69 -27 -139 -53
-156 -58 -42 -11 -45 -11 -47 -14 -3 -2 -16 -5 -53 -13 -11 -3 -38 -10 -60
-15 -38 -10 -72 -17 -140 -27 -16 -3 -41 -7 -55 -10 -132 -26 -585 -26 -722 0
-12 3 -40 7 -63 11 -94 13 -238 49 -345 85 -63 21 -123 41 -132 43 -42 11
-260 126 -343 180 -261 171 -459 388 -594 649 -58 114 -119 263 -121 299 -1 4
-7 26 -15 49 -16 45 -17 47 -38 159 -26 132 -31 191 -31 395 -1 171 5 277 18
353 2 9 7 40 11 67 17 124 95 398 150 527 8 21 15 40 16 43 1 11 165 326 182
349 4 6 35 52 69 101 67 98 149 204 213 275 62 69 217 221 265 260 24 19 48
40 54 45 9 8 151 114 192 143 17 12 47 31 94 58 25 15 56 34 70 43 14 9 52 30
85 46 33 17 63 34 66 38 3 5 9 9 12 8 4 0 24 7 44 16 21 9 40 17 43 18 3 1 26
11 52 23 94 42 365 128 433 138 11 1 20 3 20 4 0 1 14 4 30 6 17 2 50 9 75 14
25 6 63 13 85 15 22 2 72 8 110 12 154 17 483 8 645 -17 36 -6 80 -13 99 -16
19 -2 37 -6 41 -9 4 -2 22 -7 40 -10 120 -21 398 -134 524 -213 105 -67 96
-65 146 -21 25 22 58 49 73 62 79 63 81 65 66 79 -22 22 -186 118 -273 161
-82 41 -242 104 -279 111 -12 2 -42 11 -67 19 -25 9 -62 18 -84 21 -21 4 -41
8 -45 10 -3 2 -24 7 -45 10 -21 4 -48 8 -60 11 -19 4 -66 11 -126 20 -94 13
-503 28 -513 19z"/>
<path d="M8018 8044 c-2 -1 -34 -5 -73 -9 -38 -3 -81 -8 -95 -10 -14 -3 -41
-7 -60 -10 -84 -14 -222 -45 -240 -55 -11 -6 -20 -8 -20 -6 0 16 -360 -127
-368 -146 -2 -5 -12 -8 -23 -8 -10 0 -19 -4 -19 -10 0 -5 -5 -10 -10 -10 -16
0 -132 -73 -212 -133 -70 -53 -220 -194 -263 -247 -11 -14 -36 -47 -55 -75
-19 -27 -38 -54 -43 -60 -50 -67 -135 -247 -167 -352 -15 -49 -26 -71 -33 -66
-7 4 -45 28 -84 54 -40 27 -73 45 -73 42 0 -3 -8 0 -17 8 -15 12 -119 62 -188
90 -38 15 -159 50 -195 55 -19 3 -46 7 -60 10 -105 17 -314 23 -400 10 -64
-10 -160 -35 -197 -52 -17 -7 -34 -14 -38 -14 -21 0 -135 -80 -184 -129 -67
-67 -108 -144 -121 -229 -10 -59 -9 -77 6 -147 17 -80 89 -166 196 -236 70
-45 421 -219 443 -219 3 0 24 -9 48 -19 23 -11 102 -45 176 -76 495 -208 764
-395 939 -653 63 -93 135 -273 156 -388 30 -165 24 -391 -15 -572 -29 -134
-104 -334 -133 -354 -6 -4 -8 -8 -4 -8 9 0 -38 -78 -100 -167 -66 -96 -206
-237 -317 -320 -55 -42 -101 -76 -102 -78 -3 -2 165 -85 217 -107 19 -9 49
-21 65 -28 143 -60 469 -143 650 -165 28 -3 66 -8 85 -10 80 -10 270 -23 365
-26 32 0 295 12 320 15 17 2 50 7 75 9 25 3 60 8 78 11 94 17 88 15 192 41 36
9 70 18 75 19 6 1 15 4 20 8 14 8 98 32 108 30 4 -1 7 2 7 7 0 5 14 11 31 15
59 12 334 153 377 194 7 6 17 12 21 12 4 0 17 8 29 18 11 9 35 28 53 42 182
141 326 314 426 515 35 69 87 203 99 254 38 167 46 227 47 371 2 140 -3 217
-17 275 -2 11 -9 40 -15 65 -22 98 -100 280 -122 288 -5 2 -9 8 -9 14 0 17
-124 169 -177 218 -89 83 -316 248 -333 244 -3 -1 -17 6 -31 16 -26 19 -230
121 -304 152 -22 9 -105 44 -185 78 -80 33 -158 67 -175 74 -16 8 -59 26 -95
42 -244 106 -394 203 -465 299 -77 105 -77 260 1 392 46 79 166 179 254 213
19 7 49 19 65 26 38 15 107 32 176 41 99 13 326 6 409 -13 14 -3 36 -8 50 -10
22 -4 50 -10 88 -21 41 -11 31 -7 142 -50 99 -38 269 -134 349 -199 9 -7 50
-39 91 -72 41 -33 95 -78 120 -100 l45 -41 363 363 364 364 -49 48 c-101 101
-299 264 -321 264 -6 0 -12 4 -14 8 -7 19 -310 186 -358 197 -3 1 -18 7 -35
14 -140 59 -382 123 -555 146 -25 3 -52 8 -62 11 -9 3 -54 7 -100 9 -45 3 -83
5 -83 6 0 3 -404 6 -407 3z"/>
<path d="M2638 7085 c-1 -2 -21 -6 -43 -9 -23 -4 -50 -8 -60 -10 -109 -23
-198 -48 -252 -72 -17 -8 -34 -14 -37 -14 -22 0 -274 -136 -321 -172 -5 -4
-39 -29 -75 -55 -59 -44 -228 -205 -291 -278 -52 -60 -169 -230 -197 -285 -9
-19 -20 -37 -23 -40 -6 -4 -47 -90 -84 -175 -24 -56 -54 -140 -71 -200 -10
-33 -19 -64 -21 -70 -6 -22 -24 -113 -30 -150 -3 -22 -9 -50 -14 -62 -5 -13
-4 -25 1 -28 6 -4 7 -13 2 -23 -22 -43 -20 -309 3 -437 14 -76 29 -141 35
-150 6 -8 20 -51 24 -75 1 -3 5 -11 9 -17 5 -7 5 -13 0 -13 -4 0 -3 -4 2 -8 6
-4 23 -34 39 -67 59 -124 175 -265 291 -354 22 -17 49 -38 60 -47 65 -51 294
-145 390 -161 17 -2 37 -7 45 -10 20 -7 35 -9 160 -18 121 -8 113 -8 120 -6 3
1 41 4 85 6 44 2 95 6 113 9 17 3 47 8 65 11 81 14 233 64 324 106 98 46 301
173 393 246 8 6 40 31 70 56 78 62 209 157 216 157 3 0 44 -38 91 -85 47 -47
117 -111 156 -143 40 -31 74 -59 77 -63 17 -19 190 -125 268 -163 92 -46 291
-117 367 -132 22 -4 47 -9 55 -10 8 -2 35 -6 60 -9 25 -3 61 -8 80 -11 48 -7
275 -8 330 -1 91 12 124 19 199 43 171 57 294 153 353 280 28 59 33 82 35 156
3 119 -24 188 -107 268 -61 59 -155 124 -225 157 -22 10 -42 20 -45 23 -7 8
-133 68 -211 100 -36 15 -81 34 -100 43 -19 8 -104 44 -190 80 -416 176 -675
346 -862 565 -40 47 -121 172 -137 213 -8 19 -17 36 -20 39 -7 5 -48 131 -55
168 -2 12 -6 26 -10 31 -12 20 -20 134 -19 271 2 138 4 173 18 247 7 36 0 44
-89 113 -142 109 -354 196 -555 227 -40 6 -386 13 -392 8z"/>
<path d="M441 2320 c-167 -65 -175 -288 -13 -366 50 -24 146 -23 192 3 19 11
45 35 58 54 l23 34 -50 24 -50 25 -22 -28 c-19 -24 -27 -27 -66 -23 -24 2 -45
6 -46 8 -47 59 -49 104 -8 148 38 40 90 43 119 6 24 -30 21 -30 77 -4 l45 21
-18 30 c-41 73 -151 104 -241 68z"/>
<path d="M1577 2325 c-43 -15 -64 -30 -79 -58 -30 -56 -11 -129 40 -158 15 -9
55 -22 90 -29 68 -14 83 -24 55 -38 -15 -7 -58 -9 -65 -2 -2 1 -11 3 -21 5
-10 2 -30 11 -44 21 -25 16 -27 16 -40 -2 -8 -11 -21 -31 -29 -46 -13 -25 -12
-27 19 -46 61 -38 182 -48 237 -20 34 17 70 56 71 76 0 9 2 26 4 36 2 11 -2
34 -10 51 -13 34 -72 69 -130 79 -70 12 -93 27 -61 39 17 7 77 -2 91 -12 31
-24 45 -19 74 23 l30 43 -47 22 c-58 26 -136 33 -185 16z"/>
<path d="M3135 2332 c-44 -9 -87 -36 -101 -63 -18 -35 -25 -87 -13 -95 5 -3 7
-9 4 -14 -3 -4 9 -20 25 -34 29 -24 44 -30 139 -53 38 -10 54 -32 24 -34 -44
-4 -81 3 -117 22 -21 11 -39 19 -40 17 0 -2 -11 -17 -24 -35 -30 -43 -28 -55
11 -75 72 -37 178 -44 235 -14 108 56 92 195 -25 226 -94 24 -113 32 -113 46
0 18 68 11 111 -11 21 -11 29 -12 29 -4 0 7 3 9 7 6 5 -6 53 54 53 66 0 6 -70
40 -90 44 -34 7 -96 10 -115 5z"/>
<path d="M3845 2326 c-76 -28 -108 -71 -100 -134 8 -65 54 -97 170 -118 39 -7
48 -14 36 -28 -15 -18 -73 -12 -120 12 l-39 21 -20 -22 c-11 -12 -25 -32 -31
-44 -9 -19 -7 -23 22 -40 60 -36 149 -48 217 -30 33 9 89 59 91 81 0 6 2 20 4
31 13 65 -41 117 -141 137 -56 11 -78 23 -68 39 7 12 87 -1 113 -18 24 -15 25
-15 48 13 46 56 46 59 -5 82 -56 26 -135 34 -177 18z"/>
<path d="M5416 2328 c-40 -8 -88 -43 -95 -69 -26 -92 7 -148 104 -173 11 -2
40 -10 65 -16 39 -11 43 -13 27 -25 -16 -11 -42 -12 -88 -3 -9 2 -28 12 -43
21 -29 20 -36 17 -70 -37 -16 -25 -16 -30 -3 -43 25 -25 113 -50 170 -48 96 4
155 49 160 122 5 72 -47 120 -148 137 -48 8 -70 20 -61 34 7 11 84 6 101 -7
30 -23 44 -19 69 19 14 22 26 42 26 45 0 2 -18 14 -39 25 -46 23 -119 31 -175
18z"/>
<path d="M5920 2326 c-51 -16 -78 -38 -94 -77 -16 -40 -12 -75 13 -109 17 -24
80 -62 92 -55 3 2 25 -2 49 -9 47 -14 65 -35 31 -37 -12 -1 -27 -2 -33 -3 -20
-3 -71 15 -91 32 -9 8 -19 13 -21 11 -2 -2 -18 -22 -35 -43 l-31 -39 35 -24
c78 -53 226 -49 280 7 35 36 45 108 21 145 -20 30 -78 61 -127 68 -49 6 -86
27 -68 37 18 12 74 3 112 -16 19 -10 32 -13 35 -6 1 5 14 23 28 39 13 15 24
31 24 34 0 4 -21 16 -46 28 -53 26 -125 32 -174 17z"/>
<path d="M6315 2327 c-46 -12 -112 -69 -131 -114 -28 -66 -11 -159 38 -212 76
-80 223 -88 306 -16 50 42 76 133 60 206 -4 19 -34 66 -57 90 -43 45 -138 65
-216 46z m144 -136 c56 -104 -58 -204 -141 -124 -23 22 -26 32 -23 75 3 54 18
72 70 86 34 9 79 -9 94 -37z"/>
<path d="M8011 2315 c-73 -34 -118 -104 -116 -180 3 -110 80 -191 191 -199 67
-5 119 12 169 56 40 35 53 61 60 118 0 3 3 10 7 16 4 6 4 14 1 18 -4 4 -9 19
-11 33 -16 122 -176 195 -301 138z m155 -108 c38 -33 40 -106 4 -141 -41 -40
-90 -38 -130 4 -23 25 -28 37 -25 73 7 79 91 115 151 64z"/>
<path d="M8861 2320 c-63 -29 -93 -96 -71 -156 17 -44 48 -63 135 -84 80 -19
79 -19 66 -34 -15 -18 -73 -12 -124 13 -23 11 -41 19 -42 18 0 -1 -13 -19 -28
-39 -15 -20 -27 -39 -27 -41 0 -10 68 -45 101 -53 49 -11 119 -12 125 -2 3 4
10 6 15 2 16 -10 81 38 94 70 23 56 6 124 -38 148 -12 7 -24 13 -27 13 -3 1
-16 5 -30 9 -14 5 -32 10 -40 11 -30 3 -70 17 -70 25 0 23 78 19 118 -6 25
-17 30 -14 71 44 18 26 19 32 7 32 -9 0 -16 4 -16 8 0 13 -69 33 -127 36 -34
2 -65 -3 -92 -14z"/>
<path d="M739 2323 c0 -5 -1 -91 -2 -192 -2 -175 -1 -184 18 -191 11 -4 25 -5
30 -1 6 4 21 6 35 5 33 -2 38 7 34 66 -3 52 6 63 41 49 11 -4 17 -8 12 -8 -4
-1 0 -16 10 -33 9 -18 18 -39 19 -47 4 -23 17 -29 70 -32 75 -4 78 2 42 76
l-32 64 26 20 c67 53 48 184 -31 217 -36 15 -270 21 -272 7z m221 -109 c18
-18 -13 -47 -54 -49 -40 -1 -45 3 -52 39 -4 23 -2 24 46 22 27 -1 54 -6 60
-12z"/>
<path d="M1092 2308 c8 -13 42 -66 74 -118 58 -93 59 -95 59 -170 l0 -75 35
-5 c19 -3 45 -4 58 -2 23 4 24 11 24 114 0 28 13 59 50 120 61 100 88 147 88
153 0 3 -29 5 -63 5 l-64 0 -34 -65 -33 -64 -29 47 c-15 26 -31 54 -36 62 -6
11 -28 16 -76 18 l-68 3 15 -23z"/>
<path d="M1823 2280 c-1 -40 2 -50 16 -51 9 -1 32 -2 51 -2 l35 -2 0 -140 1
-140 59 0 60 0 0 138 c0 132 0 138 21 143 12 3 28 5 35 4 44 -7 49 -1 48 50
l-2 50 -162 0 -162 0 0 -50z"/>
<path d="M2250 2312 c0 -10 -3 -22 -7 -26 -4 -3 -8 -12 -9 -19 -1 -7 -13 -41
-27 -77 -53 -136 -87 -230 -87 -240 0 -6 26 -10 63 -10 55 0 63 3 72 23 9 20
17 22 80 22 65 0 70 -2 73 -22 3 -21 8 -23 72 -23 l69 0 -36 98 c-19 53 -51
141 -71 195 l-35 97 -78 0 c-70 0 -79 -2 -79 -18z m102 -167 l15 -55 -37 0
-37 0 16 55 c9 30 19 55 22 55 3 0 13 -25 21 -55z"/>
<path d="M2570 2135 l0 -195 133 0 133 0 -1 44 c0 25 -4 48 -8 53 -5 4 -38 8
-74 8 l-66 0 0 143 1 142 -59 0 -59 0 0 -195z"/>
<path d="M3354 2315 c3 -8 21 -40 41 -70 19 -31 35 -60 35 -65 0 -6 5 -10 10
-10 6 0 10 -7 10 -15 0 -8 4 -15 9 -15 18 0 27 -54 30 -173 1 -28 2 -28 59
-25 l57 3 1 75 c0 81 0 81 86 215 24 39 48 76 52 83 5 9 -9 12 -62 12 l-69 0
-29 -57 c-16 -31 -33 -58 -39 -60 -5 -1 -23 24 -39 57 l-29 60 -65 0 c-53 0
-63 -3 -58 -15z"/>
<path d="M4084 2280 c-1 -55 -5 -52 79 -52 l27 -1 0 -144 0 -144 58 3 57 3 2
130 c1 72 2 135 2 141 1 7 20 11 49 11 l47 0 3 51 3 52 -163 0 -163 0 -1 -50z"/>
<path d="M4452 2135 l0 -195 149 0 149 0 0 53 0 52 -87 0 c-81 0 -88 2 -91 21
-3 19 1 20 75 19 43 -1 83 0 89 2 6 2 10 24 9 51 l-1 47 -60 2 c-32 1 -71 2
-86 2 -20 1 -26 6 -25 20 1 17 9 19 62 19 124 0 115 -4 115 52 l0 50 -149 0
-149 0 0 -195z"/>
<path d="M4801 2303 c-1 -29 -1 -45 -1 -88 0 -14 0 -32 0 -40 0 -8 0 -27 -1
-42 0 -16 1 -37 1 -48 1 -11 1 -27 1 -35 -2 -52 0 -93 5 -101 3 -5 30 -8 60
-8 l55 2 -4 38 c-2 22 0 39 4 39 4 0 4 12 1 28 -7 24 -7 58 -3 102 2 15 43
-83 63 -150 13 -46 26 -60 53 -60 18 0 26 9 36 38 6 20 15 42 18 47 4 6 16 36
26 68 11 31 22 57 25 57 3 0 6 -46 5 -102 l0 -103 58 -3 c41 -2 57 1 58 10 0
7 1 94 1 193 l1 180 -84 0 -83 0 -32 -90 c-32 -89 -32 -90 -43 -60 -7 17 -17
44 -24 60 -6 17 -12 32 -13 35 -11 60 -11 60 -99 60 l-84 0 0 -27z"/>
<path d="M6639 2323 c-1 -5 -2 -92 -3 -195 l-1 -188 65 -1 c36 -1 70 0 75 1 6
2 36 2 68 1 62 -2 59 -5 59 69 0 11 0 23 -1 28 0 4 -34 7 -73 7 l-73 0 -1 135
c-1 74 -2 138 -3 143 -1 4 -26 7 -56 7 -30 0 -56 -3 -56 -7z"/>
<path d="M6939 2313 c-1 -10 -1 -71 0 -136 0 -87 5 -127 17 -153 57 -119 286
-120 347 -1 16 31 19 58 19 155 0 64 0 125 -1 135 -1 14 -11 17 -59 17 l-59 0
0 -127 c0 -119 -1 -127 -22 -145 -30 -24 -76 -23 -101 2 -22 22 -21 16 -22
163 l0 107 -59 0 c-49 0 -59 -3 -60 -17z"/>
<path d="M7364 2280 c-1 -54 -3 -52 69 -53 l37 0 0 -144 0 -144 58 3 57 3 2
135 c0 74 2 138 2 142 1 4 22 6 49 5 l47 -2 3 53 3 52 -163 0 -163 0 -1 -50z"/>
<path d="M7734 2138 l1 -193 58 -1 57 -2 0 194 0 194 -59 0 -59 0 2 -192z"/>
<path d="M8362 2303 c0 -16 -1 -32 -2 -38 -1 -5 -2 -12 -1 -15 6 -20 4 -190
-2 -190 -5 0 -5 -4 -2 -10 3 -5 6 -32 7 -60 l0 -50 57 0 58 0 -1 48 c-1 26 2
55 7 65 4 9 4 17 0 17 -11 0 -9 50 1 51 4 0 21 -19 38 -43 101 -142 97 -138
158 -138 l56 0 0 195 1 195 -59 0 -58 0 -1 -37 c-1 -21 -1 -62 -1 -90 0 -29
-1 -53 -2 -53 -1 0 -31 40 -67 90 l-64 90 -62 0 c-61 0 -62 0 -61 -27z"/>
</g>
</svg>
